<svg width="111" height="19" viewBox="0 0 111 19" fill="none" xmlns="http://www.w3.org/2000/svg">
<path d="M15.859 18.2458C14.3386 18.2458 13.0024 17.8772 11.8505 17.14C10.6986 16.4028 9.80014 15.3546 9.15508 13.9954C8.51003 12.6362 8.1875 11.0005 8.1875 9.08835C8.1875 7.19927 8.51003 5.57511 9.15508 4.21589C9.80014 2.85667 10.6986 1.81997 11.8505 1.10581C13.0024 0.368602 14.3386 0 15.859 0C17.2643 0 18.5199 0.345565 19.6257 1.03669C20.7545 1.70479 21.4917 2.61477 21.8373 3.76666H21.4572L21.8719 0.345564H26.8826C26.8134 1.10581 26.7443 1.87757 26.6752 2.66085C26.6291 3.42109 26.6061 4.16982 26.6061 4.90702V17.8657H21.4226L21.3881 14.5828H21.8028C21.4342 15.6886 20.6969 16.5756 19.5911 17.2437C18.4853 17.9118 17.2413 18.2458 15.859 18.2458ZM17.4486 14.3064C18.6466 14.3064 19.6142 13.8802 20.3514 13.0278C21.0886 12.1754 21.4572 10.8623 21.4572 9.08835C21.4572 7.31445 21.0886 6.01283 20.3514 5.18347C19.6142 4.35412 18.6466 3.93944 17.4486 3.93944C16.2507 3.93944 15.2831 4.35412 14.5459 5.18347C13.8087 6.01283 13.4401 7.31445 13.4401 9.08835C13.4401 10.8623 13.7972 12.1754 14.5113 13.0278C15.2485 13.8802 16.2276 14.3064 17.4486 14.3064Z" fill="#FFF0E3"/>
<path d="M30.3671 17.8657V14.4792L40.8032 3.00641V4.25045H30.3671V0.345564H45.5028V3.76666L34.9286 15.3431L34.894 13.9954H45.8484V17.8657H30.3671Z" fill="#FFF0E3"/>
<path d="M57.6843 18.2458C54.6433 18.2458 52.2704 17.428 50.5656 15.7923C48.8608 14.1566 48.0085 11.9335 48.0085 9.12291C48.0085 7.30294 48.3655 5.71334 49.0797 4.35412C49.8169 2.99489 50.8306 1.93516 52.1207 1.17492C53.4338 0.39164 54.9658 0 56.7167 0C58.4445 0 59.8844 0.368602 61.0362 1.10581C62.2112 1.84301 63.0866 2.87971 63.6625 4.21589C64.2615 5.52904 64.561 7.06104 64.561 8.8119V10.0214H52.2935V7.42964H60.7598L60.1723 7.91343C60.1723 6.46206 59.8728 5.36777 59.2739 4.63057C58.6979 3.87033 57.857 3.4902 56.7512 3.4902C55.5302 3.4902 54.5857 3.93944 53.9176 4.83791C53.2726 5.73638 52.95 7.02648 52.95 8.70823V9.26114C52.95 10.9659 53.3647 12.233 54.1941 13.0623C55.0465 13.8917 56.2675 14.3064 57.8571 14.3064C58.8016 14.3064 59.6885 14.1912 60.5179 13.9608C61.3703 13.7074 62.1766 13.3158 62.9369 12.7859L64.3882 16.2415C63.5128 16.8866 62.4991 17.3819 61.3473 17.7275C60.2184 18.073 58.9974 18.2458 57.6843 18.2458Z" fill="#FFF0E3"/>
<path d="M76.6836 18.2458C73.6426 18.2458 71.2697 17.428 69.5649 15.7923C67.8602 14.1566 67.0078 11.9335 67.0078 9.12291C67.0078 7.30294 67.3649 5.71334 68.079 4.35412C68.8162 2.99489 69.8299 1.93516 71.12 1.17492C72.4331 0.39164 73.9651 0 75.716 0C77.4438 0 78.8837 0.368602 80.0356 1.10581C81.2105 1.84301 82.0859 2.87971 82.6619 4.21589C83.2608 5.52904 83.5603 7.06104 83.5603 8.8119V10.0214H71.2928V7.42964H79.7591L79.1717 7.91343C79.1717 6.46206 78.8722 5.36777 78.2732 4.63057C77.6972 3.87033 76.8564 3.4902 75.7506 3.4902C74.5296 3.4902 73.585 3.93944 72.9169 4.83791C72.2719 5.73638 71.9493 7.02648 71.9493 8.70823V9.26114C71.9493 10.9659 72.364 12.233 73.1934 13.0623C74.0458 13.8917 75.2668 14.3064 76.8564 14.3064C77.8009 14.3064 78.6879 14.1912 79.5172 13.9608C80.3696 13.7074 81.1759 13.3158 81.9362 12.7859L83.3875 16.2415C82.5121 16.8866 81.4985 17.3819 80.3466 17.7275C79.2177 18.073 77.9967 18.2458 76.6836 18.2458Z" fill="#FFF0E3"/>
<path d="M86.0152 17.8657V14.4792L96.4512 3.00641V4.25045H86.0152V0.345564H101.151V3.76666L90.5766 15.3431L90.5421 13.9954H101.496V17.8657H86.0152Z" fill="#FFF0E3"/>
<path fill-rule="evenodd" clip-rule="evenodd" d="M98.5326 7.25L103.12 8.05166V9.12053V10.2339L98.5326 10.9911H26.6172V9.12053V7.25H98.5326Z" fill="#FDAB30"/>
<path d="M0 9.12053C0 8.08746 0.837464 7.25 1.87053 7.25H10.6627L11.3281 8.05166V9.12053V10.2339L10.6627 10.9911H1.87053C0.837466 10.9911 0 10.1536 0 9.12053Z" fill="#FDAB30"/>
<rect x="103.047" y="8.40625" width="1.36719" height="1.51424" fill="#FDAB30"/>
<path d="M104.32 8.05469H104.46L109.473 8.76727L109.536 8.78741C109.87 8.89445 109.875 9.3664 109.542 9.47985L104.46 10.1924H104.32V8.05469Z" fill="#FDAB30"/>
</svg>
