<svg width="28" height="28" viewBox="0 0 28 28" fill="none" xmlns="http://www.w3.org/2000/svg">
<path d="M18.1191 2.62402C18.6024 2.62402 18.9941 3.01675 18.9941 3.5V4.95801H20.4502C22.222 4.95801 23.659 6.39425 23.6592 8.16602V22.166C23.6592 23.9379 22.2221 25.375 20.4502 25.375H6.4502C4.67843 25.3748 3.24219 23.9378 3.24219 22.166V8.16602C3.24236 6.39436 4.67854 4.95818 6.4502 4.95801H7.91016V3.5C7.91016 3.01675 8.30191 2.62402 8.78516 2.62402C9.26841 2.62402 9.66016 3.01675 9.66016 3.5V4.95801H17.2441V3.5C17.2441 3.01675 17.6359 2.62402 18.1191 2.62402ZM4.99219 13.708V22.166C4.99219 22.9713 5.64493 23.6248 6.4502 23.625H20.4502C21.2556 23.625 21.9092 22.9714 21.9092 22.166V13.708H4.99219ZM6.4502 6.70801C5.64504 6.70818 4.99236 7.36086 4.99219 8.16602V11.958H21.9092V8.16602C21.909 7.36075 21.2555 6.70801 20.4502 6.70801H18.9941V8.16699C18.9937 8.64987 18.6021 9.04199 18.1191 9.04199C17.6362 9.04199 17.2446 8.64987 17.2441 8.16699V6.70801H9.66016V8.16699C9.65972 8.64987 9.26813 9.04199 8.78516 9.04199C8.30218 9.04199 7.9106 8.64987 7.91016 8.16699V6.70801H6.4502Z" fill="#282828"/>
</svg>
